<?xml version="1.0" encoding="UTF-8" standalone="no"?>
<!-- Created with Inkscape (http://www.inkscape.org/) -->

<svg
   width="183.76636mm"
   height="121.6025mm"
   viewBox="0 0 183.76636 121.6025"
   version="1.1"
   id="svg1"
   inkscape:version="1.4.3 (0d15f75, 2025-12-25)"
   sodipodi:docname="logo.svg"
   xmlns:inkscape="http://www.inkscape.org/namespaces/inkscape"
   xmlns:sodipodi="http://sodipodi.sourceforge.net/DTD/sodipodi-0.dtd"
   xmlns="http://www.w3.org/2000/svg"
   xmlns:svg="http://www.w3.org/2000/svg">
  <sodipodi:namedview
     id="namedview1"
     pagecolor="#ffffff"
     bordercolor="#999999"
     borderopacity="1"
     inkscape:showpageshadow="2"
     inkscape:pageopacity="0"
     inkscape:pagecheckerboard="true"
     inkscape:deskcolor="#d1d1d1"
     inkscape:document-units="mm"
     inkscape:zoom="0.54973506"
     inkscape:cx="347.44009"
     inkscape:cy="229.20132"
     inkscape:window-width="1391"
     inkscape:window-height="769"
     inkscape:window-x="0"
     inkscape:window-y="43"
     inkscape:window-maximized="0"
     inkscape:current-layer="layer1" />
  <defs
     id="defs1" />
  <g
     inkscape:label="Layer 1"
     inkscape:groupmode="layer"
     id="layer1"
     transform="translate(-2.9104161,-16.668749)">
    <path
       id="Eye_Mark"
       data-name="Eye Mark"
       class="cls-1"
       d="m 71.47454,52.953707 v -10.9855 c 1.058334,-0.07408 2.143125,-0.132292 3.241146,-0.166688 30.043434,-0.944562 49.741664,25.81275 49.741664,25.81275 0,0 -21.27779,29.567187 -44.100747,29.567187 A 27.651604,27.651604 0 0 1 71.47454,95.760644 v -33.30575 c 11.697229,1.412875 14.046729,6.577542 21.082,18.298583 l 15.63687,-13.186833 c 0,0 -11.406183,-14.964833 -30.657266,-14.964833 a 56.853666,56.853666 0 0 0 -6.061604,0.357187 m 0,-36.284958 v 16.404167 c 1.0795,-0.08467 2.159,-0.153458 3.241146,-0.193146 41.780354,-1.410229 68.995394,34.268833 68.995394,34.268833 0,0 -31.26317,38.007396 -63.830727,38.007396 a 47.984833,47.984833 0 0 1 -8.405813,-0.74083 v 10.14148 a 55.282041,55.282041 0 0 0 7.000875,0.45508 c 30.308025,0 52.226105,-15.478126 73.453625,-33.797876 3.51631,2.817812 17.92287,9.670521 20.88621,12.676187 -20.18242,16.893649 -67.20417,30.509099 -93.874168,30.509099 -2.569104,0 -5.027083,-0.15345 -7.466542,-0.38629 v 14.25311 H 186.67677 V 16.668749 Z m 0,79.091895 v 8.659815 C 43.441936,99.43306 35.668478,70.283915 35.668478,70.283915 c 0,0 13.459354,-14.914563 35.814,-17.330208 v 9.501187 h -0.04233 c -11.731624,-1.410229 -20.902083,9.551458 -20.902083,9.551458 0,0 5.135563,18.449396 20.939125,23.759583 M 21.685249,69.019206 c 0,0 16.629063,-24.516291 49.789291,-27.050999 V 33.075561 C 34.731853,36.025665 2.9104161,67.153894 2.9104161,67.153894 c 0,0 18.0207709,52.093816 68.5641239,56.864246 v -9.4562 C 34.385249,109.89733 21.685249,69.019206 21.685249,69.019206 Z"
       style="fill:#76b900;stroke-width:0.264583" />
  </g>
</svg>
